<?xml version="1.0" encoding="UTF-8"?>
<svg xmlns="http://www.w3.org/2000/svg" xmlns:xlink="http://www.w3.org/1999/xlink" width="20px" height="20px" viewBox="0 0 20 20" version="1.1">
<g id="surface1">
<path style=" stroke:none;fill-rule:evenodd;fill:rgb(0%,100%,42.745098%);fill-opacity:1;" d="M 6 4.167969 C 7.75 4.167969 9.167969 5.582031 9.167969 7.332031 C 9.167969 8.332031 8.667969 9.25 8 9.832031 L 7.917969 9.832031 L 8 9.832031 C 8.667969 10.332031 9.167969 11.167969 9.167969 12.167969 L 9.167969 12.332031 C 9.167969 14 7.832031 15.332031 6.167969 15.417969 L 2.332031 15.417969 C 2 15.417969 1.75 15.167969 1.75 14.917969 L 1.75 4.832031 C 1.667969 4.5 1.917969 4.25 2.167969 4.167969 Z M 2.917969 10.417969 L 2.917969 14.167969 L 6.082031 14.167969 C 7.082031 14.167969 7.917969 13.417969 7.917969 12.417969 L 7.917969 12.25 C 7.917969 11.25 7.167969 10.417969 6.167969 10.417969 Z M 6.082031 9.167969 L 2.917969 9.167969 L 2.917969 5.417969 L 6.25 5.417969 C 7.25 5.5 8 6.332031 8 7.25 C 8 8.167969 7.167969 9.082031 6.167969 9.167969 Z M 17.917969 10.667969 C 17.917969 8.75 16.332031 7.167969 14.417969 7.167969 C 12.5 7.167969 10.832031 8.667969 10.832031 10.667969 L 10.832031 12.582031 C 11.082031 14.082031 12.25 15.167969 13.75 15.417969 C 15.332031 15.667969 16.832031 14.832031 17.5 13.417969 C 17.667969 13.082031 17.5 12.75 17.167969 12.582031 C 16.832031 12.417969 16.5 12.582031 16.332031 12.917969 C 15.917969 13.832031 14.917969 14.332031 13.917969 14.25 L 13.75 14.25 C 12.832031 14.082031 12.167969 13.332031 12 12.5 L 12 11.417969 L 17.25 11.417969 C 17.667969 11.167969 17.917969 10.917969 17.917969 10.667969 Z M 12.167969 9.917969 C 12.5 9 13.332031 8.332031 14.332031 8.332031 L 14.5 8.332031 C 15.5 8.417969 16.25 9.082031 16.582031 9.917969 L 16.582031 10 Z M 16.25 4.832031 C 16.25 4.5 16 4.167969 15.582031 4.167969 L 13 4.167969 C 12.667969 4.167969 12.5 4.5 12.5 4.75 C 12.5 5.082031 12.75 5.417969 13.167969 5.417969 L 15.75 5.417969 C 16 5.332031 16.25 5.082031 16.25 4.832031 Z M 16.25 4.832031 "/>
</g>
</svg>
