<?xml version="1.0" encoding="UTF-8"?>
<svg xmlns="http://www.w3.org/2000/svg" xmlns:xlink="http://www.w3.org/1999/xlink" width="132px" height="26px" viewBox="0 0 78 26" version="1.1">
<g id="surface1">
<path style=" stroke:none;fill-rule:evenodd;fill:rgb(100%,0%,0%);fill-opacity:1;" d="M 29.832031 21.9375 C 26.9375 20.070312 22.996094 19.742188 16.644531 21.53125 C 15.679688 21.773438 14.796875 21.9375 13.992188 22.179688 C 9.246094 23.320312 7.238281 23.804688 4.664062 22.101562 C 3.617188 21.125 3.214844 19.5 3.539062 17.226562 C 4.261719 13.488281 6.113281 9.832031 9.570312 5.851562 C 11.417969 3.738281 13.1875 1.949219 15.519531 1.300781 C 17.289062 0.8125 17.128906 2.195312 16.886719 2.4375 C 16.644531 2.4375 16.242188 2.4375 16.003906 2.679688 C 15.761719 2.84375 15.117188 3.492188 15.039062 4.226562 C 14.957031 5.445312 16.242188 5.199219 16.804688 4.550781 C 17.367188 3.820312 18.253906 2.355469 17.609375 0.976562 C 17.289062 0.488281 16.804688 0.164062 16.242188 0.0820312 C 14.152344 0 12.140625 0.976562 10.292969 2.03125 C 6.273438 4.792969 3.136719 8.53125 1.285156 12.675781 C 0.242188 15.195312 -0.722656 18.769531 0.722656 21.695312 C 1.847656 23.726562 4.101562 24.78125 6.753906 24.539062 C 8.363281 24.375 10.210938 23.886719 11.738281 23.5625 C 11.980469 23.480469 12.304688 23.398438 12.542969 23.398438 C 12.707031 23.398438 12.867188 23.320312 13.105469 23.238281 C 15.4375 22.585938 22.195312 20.800781 24.527344 25.023438 C 24.527344 25.023438 25.410156 23.398438 27.5 23.320312 C 29.269531 23.15625 31.84375 23.804688 33.691406 25.1875 C 33.050781 24.292969 31.359375 22.914062 29.832031 21.9375 Z M 74.058594 3.492188 C 72.289062 4.46875 70.441406 5.117188 68.191406 4.875 C 67.546875 5.523438 66.984375 6.257812 66.421875 6.90625 C 69.558594 7.636719 72.855469 5.929688 74.703125 4.386719 C 76.632812 2.761719 77.679688 0.730469 77.679688 0.730469 C 77.679688 0.730469 76.230469 2.273438 74.058594 3.492188 Z M 48.085938 13.242188 C 47.84375 12.757812 47.28125 12.429688 46.71875 12.511719 C 44.789062 12.675781 42.859375 14.21875 41.894531 16.414062 C 41.332031 17.550781 41.089844 18.445312 40.929688 19.988281 C 41.574219 19.335938 42.78125 18.199219 44.144531 17.632812 C 44.144531 17.632812 44.308594 16.167969 45.273438 14.949219 C 45.675781 14.460938 46.398438 13.570312 47.203125 13.8125 C 47.925781 14.054688 47.683594 15.925781 46.71875 17.792969 C 45.996094 19.175781 44.949219 20.554688 43.824219 21.449219 C 42.859375 22.261719 41.414062 23.15625 40.125 22.425781 C 39.320312 21.9375 38.917969 21.042969 39 19.824219 C 39.402344 16.414062 41.011719 13.40625 43.34375 10.074219 C 45.753906 6.988281 48.410156 3.820312 51.945312 2.113281 C 52.671875 1.789062 53.3125 1.707031 53.957031 1.867188 C 53.957031 1.867188 50.578125 3.65625 48.972656 6.90625 C 48.570312 7.71875 48.007812 8.855469 48.570312 9.832031 C 48.890625 10.320312 49.375 10.398438 49.855469 10.398438 C 51.785156 9.992188 53.070312 8.207031 54.117188 6.582031 C 54.679688 5.363281 55.242188 4.144531 55.242188 2.761719 C 55.242188 2.601562 55.242188 2.355469 55.242188 2.195312 C 56.207031 1.707031 58.136719 2.601562 58.136719 2.601562 C 59.023438 2.84375 60.46875 3.820312 61.757812 4.632812 C 62.640625 5.199219 63.445312 5.6875 63.929688 5.929688 C 64.492188 5.363281 65.292969 4.46875 65.777344 3.980469 L 65.054688 3.574219 C 64.007812 2.925781 62.800781 2.355469 61.675781 1.707031 L 61.515625 1.625 C 58.863281 0.242188 56.691406 0.730469 55.566406 1.136719 C 55.164062 1.300781 54.761719 1.382812 54.761719 1.382812 C 53.957031 0.488281 52.589844 0.570312 51.625 0.8125 C 48.085938 1.789062 44.789062 4.226562 41.171875 8.367188 C 38.597656 11.617188 36.910156 14.460938 36.105469 17.226562 C 35.460938 19.09375 35.21875 21.855469 36.828125 23.480469 C 38.195312 24.863281 40.046875 24.539062 41.332031 24.050781 C 44.144531 22.75 46.640625 19.90625 47.925781 16.574219 C 48.246094 15.679688 48.570312 14.300781 48.085938 13.242188 Z M 10.773438 10.644531 C 13.105469 7.636719 16.082031 5.851562 17.609375 6.742188 C 18.976562 7.71875 17.933594 10.074219 17.609375 10.886719 C 17.609375 10.96875 17.53125 11.050781 17.53125 11.050781 C 18.09375 11.210938 19.78125 9.992188 20.746094 8.9375 C 21.550781 8.125 22.835938 7.070312 23.722656 6.742188 C 24.363281 6.417969 25.328125 6.335938 25.972656 6.742188 C 26.375 6.988281 26.695312 7.476562 26.695312 7.960938 C 26.777344 9.425781 25.007812 11.78125 24.125 10.5625 C 23.960938 10.074219 24.125 9.507812 24.6875 8.9375 C 25.007812 8.613281 25.328125 8.53125 25.8125 8.53125 C 25.972656 8.289062 25.972656 7.882812 25.652344 7.71875 C 25.328125 7.554688 24.765625 7.636719 24.203125 8.042969 C 22.273438 9.507812 20.664062 11.945312 19.621094 14.542969 C 19.460938 15.03125 19.378906 15.761719 19.621094 16.332031 C 20.425781 17.550781 22.433594 15.84375 22.433594 15.84375 C 23.722656 14.707031 25.007812 13.164062 26.054688 11.78125 C 28.625 8.207031 32.085938 5.039062 33.613281 7.070312 C 33.613281 7.070312 33.613281 7.070312 33.691406 7.148438 C 33.691406 7.148438 33.691406 7.230469 33.773438 7.230469 C 33.773438 7.230469 34.09375 6.824219 34.09375 6.824219 L 36.585938 6.824219 C 36.585938 6.824219 31.359375 15.519531 31.359375 15.519531 C 31.28125 15.761719 31.199219 16.007812 31.359375 16.167969 C 31.523438 16.25 31.683594 16.167969 31.761719 16.167969 C 32.96875 15.601562 34.820312 13.164062 35.140625 12.757812 C 35.140625 12.675781 35.21875 12.675781 35.21875 12.675781 L 36.105469 12.675781 C 34.820312 14.542969 33.128906 16.65625 31.121094 18.039062 C 30.558594 18.363281 29.832031 18.769531 29.109375 18.523438 C 28.386719 18.117188 28.464844 17.550781 28.546875 16.980469 C 28.546875 16.898438 28.546875 16.820312 28.546875 16.738281 C 28.386719 16.980469 26.535156 18.929688 25.007812 18.523438 C 24.445312 18.363281 23.640625 17.957031 24.285156 15.761719 C 24.285156 15.761719 24.363281 15.601562 24.363281 15.4375 C 24.203125 15.601562 23.960938 15.84375 23.960938 15.84375 C 22.433594 17.304688 20.746094 18.851562 18.574219 18.523438 C 17.128906 18.117188 16.96875 16.738281 16.96875 16.167969 C 16.96875 16.085938 16.96875 16.085938 16.96875 16.007812 C 16.804688 14.707031 18.335938 12.105469 18.574219 11.699219 C 18.574219 11.699219 18.574219 11.699219 18.574219 11.617188 C 18.09375 11.78125 17.691406 11.863281 17.367188 11.945312 C 17.367188 12.023438 16.804688 12.835938 16.804688 12.835938 L 16.804688 12.917969 C 16.242188 13.894531 15.601562 14.867188 14.796875 15.679688 L 14.636719 15.84375 C 13.429688 17.226562 10.613281 19.664062 9.085938 17.957031 C 7.640625 16.574219 8.605469 13.40625 10.773438 10.644531 Z M 31.601562 8.289062 C 31.28125 8.613281 29.914062 10.238281 29.429688 10.886719 C 27.5 13.40625 26.859375 15.195312 26.859375 15.761719 C 26.859375 15.925781 26.9375 16.085938 27.097656 16.25 C 27.261719 16.332031 27.421875 16.332031 27.582031 16.332031 C 28.464844 15.84375 28.949219 15.195312 29.511719 14.460938 C 29.511719 14.460938 29.914062 13.894531 29.914062 13.894531 C 31.121094 12.023438 32.324219 9.914062 33.371094 8.125 C 33.210938 7.800781 32.726562 7.394531 31.601562 8.289062 Z M 16.003906 12.023438 C 16.003906 12.023438 16.003906 12.105469 16.003906 12.105469 C 16.003906 12.105469 14.957031 13.8125 14.957031 13.8125 C 14.3125 14.625 13.507812 15.679688 12.542969 16.167969 C 12.222656 16.25 11.820312 16.332031 11.660156 16.085938 C 11.175781 15.601562 11.417969 14.867188 11.660156 14.300781 L 11.738281 14.054688 C 12.304688 12.675781 13.105469 11.457031 13.910156 10.320312 C 13.910156 10.320312 13.910156 10.320312 13.992188 10.320312 C 14.472656 11.292969 15.519531 11.699219 16.242188 11.945312 C 16.082031 11.945312 16.082031 11.945312 16.003906 12.023438 Z M 16.566406 11.132812 C 16.566406 11.132812 17.046875 10.074219 17.046875 10.074219 C 17.207031 9.585938 17.367188 9.101562 17.367188 8.695312 C 17.367188 8.367188 17.289062 8.042969 17.046875 7.800781 C 16.726562 7.554688 16.164062 7.636719 15.761719 7.960938 C 15.359375 8.207031 14.472656 9.019531 14.714844 9.992188 C 14.875 10.480469 15.359375 10.886719 16.003906 11.132812 L 16.242188 11.132812 C 16.402344 11.132812 16.484375 11.132812 16.566406 11.132812 Z M 50.015625 9.585938 C 50.820312 9.425781 54.117188 6.988281 54.519531 2.925781 C 54.519531 2.761719 54.519531 2.679688 54.519531 2.519531 C 52.507812 3.492188 50.578125 5.445312 49.453125 7.800781 C 48.648438 9.507812 49.535156 9.75 50.015625 9.585938 Z M 38.195312 6.90625 L 40.527344 6.90625 L 39.160156 8.9375 L 36.828125 8.9375 Z M 68.109375 22.101562 C 67.867188 22.261719 67.546875 22.101562 67.625 21.773438 C 67.949219 20.800781 69.234375 18.851562 69.234375 18.851562 L 72.855469 12.59375 L 70.359375 12.59375 C 70.28125 12.757812 69.957031 13.242188 69.957031 13.242188 C 69.878906 13.082031 69.476562 12.675781 69.394531 12.59375 C 68.753906 12.1875 67.867188 12.429688 67.304688 12.757812 C 64.652344 14.21875 62.722656 17.226562 61.195312 19.5 C 61.195312 19.5 59.585938 22.101562 58.699219 22.261719 C 57.976562 22.34375 58.058594 21.367188 58.136719 21.207031 C 58.378906 19.664062 59.023438 18.199219 59.664062 16.898438 C 60.953125 16.007812 62.398438 14.867188 63.765625 13.648438 C 66.660156 10.96875 69.074219 7.882812 69.476562 7.230469 C 69.476562 7.230469 69.074219 7.3125 68.671875 7.3125 C 66.421875 10.320312 61.835938 14.707031 60.46875 15.4375 C 61.113281 13.976562 65.054688 7.148438 68.429688 3.898438 L 68.992188 3.414062 C 69.796875 2.601562 70.683594 1.867188 71.324219 1.707031 C 71.40625 1.707031 71.488281 1.707031 71.566406 1.867188 C 71.566406 2.4375 71.324219 2.925781 71.085938 3.414062 L 70.601562 4.0625 C 70.601562 4.0625 71.164062 3.980469 71.488281 3.820312 C 71.886719 3.085938 72.371094 2.273438 72.210938 1.300781 C 72.128906 0.976562 71.886719 0.730469 71.648438 0.648438 C 70.601562 0.488281 69.558594 1.21875 68.671875 1.789062 C 64.007812 5.28125 60.148438 10.320312 56.851562 17.0625 C 56.609375 17.226562 55.644531 17.46875 55.484375 17.386719 C 55.804688 16.738281 56.207031 15.84375 56.449219 14.867188 C 56.449219 14.625 56.53125 14.300781 56.53125 14.054688 C 56.53125 13.488281 56.367188 12.917969 55.804688 12.511719 C 55.164062 12.1875 54.359375 12.351562 53.875 12.59375 C 51.464844 13.570312 49.695312 15.925781 48.410156 17.875 C 47.683594 19.09375 47.042969 20.476562 46.800781 22.019531 C 46.640625 23.238281 46.960938 23.96875 47.605469 24.375 C 48.328125 24.699219 49.210938 24.375 49.613281 24.210938 C 52.027344 22.992188 53.714844 20.476562 55.082031 18.199219 C 55.082031 18.199219 55.082031 18.199219 55.164062 18.199219 C 55.402344 18.199219 55.96875 18.117188 56.449219 18.039062 C 56.449219 18.117188 56.128906 18.929688 56.128906 18.929688 C 55.242188 21.367188 54.921875 22.992188 55.726562 23.96875 C 56.851562 25.351562 58.78125 23.886719 60.308594 22.019531 C 59.988281 24.292969 61.195312 24.617188 62.078125 24.457031 C 63.125 24.210938 64.328125 23.074219 64.8125 22.507812 C 64.652344 23.15625 64.652344 24.375 65.617188 24.457031 C 66.179688 24.539062 66.582031 24.292969 67.0625 24.050781 C 67.144531 23.96875 67.226562 23.96875 67.304688 23.886719 C 69.316406 22.832031 71.808594 19.257812 72.371094 18.199219 L 71.566406 18.199219 L 71.488281 18.363281 C 70.601562 19.664062 69.476562 21.367188 68.109375 22.101562 Z M 49.855469 21.855469 C 49.695312 21.695312 49.695312 21.449219 49.695312 21.207031 C 49.695312 19.824219 51.140625 17.46875 52.1875 16.085938 C 52.671875 17.0625 53.636719 17.632812 54.199219 17.875 C 53.554688 19.582031 50.980469 23.074219 49.855469 21.855469 Z M 53.152344 15.761719 C 53.394531 16.898438 54.679688 17.304688 54.761719 17.304688 C 55.164062 16.65625 55.484375 15.84375 55.726562 15.113281 L 55.726562 15.03125 C 55.726562 14.789062 55.804688 14.625 55.804688 14.382812 C 55.804688 13.976562 55.726562 13.648438 55.402344 13.488281 C 55.082031 13.40625 54.679688 13.488281 54.359375 13.648438 C 53.636719 13.976562 52.910156 14.789062 53.152344 15.761719 Z M 64.8125 21.449219 C 64.8125 21.449219 64.570312 21.695312 64.570312 21.695312 C 64.25 22.019531 63.929688 22.261719 63.445312 22.101562 C 63.363281 22.019531 63.285156 21.9375 63.203125 21.773438 C 63.203125 20.960938 63.605469 20.148438 63.929688 19.417969 L 64.007812 19.257812 L 64.089844 19.175781 C 65.132812 17.386719 66.421875 15.355469 68.269531 13.976562 C 68.589844 13.730469 68.914062 13.570312 69.316406 13.730469 C 69.394531 13.8125 69.476562 13.976562 69.476562 14.054688 C 69.476562 14.136719 69.476562 14.21875 69.394531 14.21875 C 68.914062 14.949219 68.511719 15.679688 68.027344 16.414062 L 67.867188 16.738281 C 67.0625 18.28125 66.097656 19.988281 64.8125 21.449219 Z M 64.8125 21.449219 "/>
</g>
</svg>
