<?xml version="1.0" encoding="UTF-8"?>
<svg xmlns="http://www.w3.org/2000/svg" xmlns:xlink="http://www.w3.org/1999/xlink" width="20px" height="20px" viewBox="0 0 20 20" version="1.1">
<g id="surface1">
<path style=" stroke:none;fill-rule:evenodd;fill:rgb(46.27451%,0%,100%);fill-opacity:1;" d="M 14.832031 1.667969 C 15.167969 1.667969 15.417969 1.917969 15.417969 2.167969 L 15.417969 5.582031 C 15.417969 5.917969 15.167969 6.167969 14.917969 6.167969 L 12.332031 6.167969 C 12.25 6.167969 12.167969 6.25 12.167969 6.332031 L 12.167969 7.5 L 14.832031 7.5 C 15.25 7.5 15.5 7.832031 15.417969 8.167969 L 15.417969 8.25 L 14.582031 11.582031 C 14.5 11.832031 14.332031 12 14.082031 12.082031 L 12.167969 12.082031 L 12.167969 17.25 C 12.167969 17.582031 11.917969 17.832031 11.667969 17.832031 L 8.25 17.832031 C 7.917969 17.832031 7.667969 17.582031 7.667969 17.332031 L 7.667969 12.082031 L 5.667969 12.082031 C 5.332031 12.082031 5.082031 11.832031 5.082031 11.582031 L 5.082031 8.167969 C 5 7.832031 5.25 7.582031 5.5 7.5 L 7.5 7.5 L 7.5 6.5 C 7.5 3.917969 9.582031 1.832031 12.082031 1.75 L 14.832031 1.75 Z M 14.167969 2.917969 L 12.332031 2.917969 C 10.417969 2.917969 8.917969 4.417969 8.832031 6.25 L 8.832031 8.082031 C 8.832031 8.417969 8.582031 8.667969 8.332031 8.667969 L 6.25 8.667969 L 6.25 10.832031 L 8.082031 10.832031 C 8.417969 10.832031 8.667969 11.082031 8.667969 11.332031 L 8.667969 16.667969 L 10.832031 16.667969 L 10.832031 11.5 C 10.832031 11.167969 11.082031 10.917969 11.332031 10.917969 L 13.417969 10.917969 L 13.917969 8.832031 L 11.417969 8.832031 C 11.082031 8.832031 10.832031 8.582031 10.832031 8.332031 L 10.832031 6.582031 C 10.832031 5.832031 11.417969 5.167969 12.167969 5.167969 L 14.167969 5.167969 Z M 14.167969 2.917969 "/>
</g>
</svg>
