<?xml version="1.0" encoding="UTF-8"?>
<svg xmlns="http://www.w3.org/2000/svg" xmlns:xlink="http://www.w3.org/1999/xlink" width="132px" height="26px" viewBox="0 0 128 26" version="1.1">
<g id="surface1">
<path style=" stroke:none;fill-rule:evenodd;fill:rgb(14.509804%,0%,100%);fill-opacity:1;" d="M 65.730469 12.324219 C 64.671875 12.324219 63.902344 12.710938 63.132812 13 L 63.132812 20.992188 C 63.902344 21.089844 64.289062 21.089844 64.960938 21.089844 C 67.464844 21.089844 67.851562 19.933594 67.851562 18.296875 L 67.851562 14.445312 C 67.851562 13.289062 67.464844 12.324219 65.730469 12.324219 Z M 48.890625 11.941406 C 47.15625 11.941406 46.773438 12.902344 46.773438 14.058594 L 46.773438 14.734375 L 51.105469 14.734375 L 51.105469 14.058594 C 51.105469 12.902344 50.621094 11.941406 48.890625 11.941406 Z M 16.359375 20.222656 C 16.359375 21.183594 16.84375 21.667969 17.804688 21.667969 C 18.863281 21.667969 19.441406 21.28125 20.210938 20.992188 L 20.210938 19.066406 L 17.902344 19.066406 C 16.84375 19.066406 16.359375 19.257812 16.359375 20.222656 Z M 81.996094 12.324219 C 80.265625 12.324219 79.589844 13.289062 79.589844 14.445312 L 79.589844 18.777344 C 79.589844 19.933594 80.167969 20.894531 81.996094 20.894531 C 83.730469 20.894531 84.402344 19.933594 84.402344 18.777344 L 84.402344 14.445312 C 84.402344 13.289062 83.824219 12.324219 81.996094 12.324219 Z M 7.796875 25.132812 L 2.597656 25.132812 L 2.597656 12.613281 L 0 12.613281 L 0 8.28125 L 2.597656 8.28125 L 2.597656 5.679688 C 2.597656 2.117188 4.042969 0.0976562 8.179688 0.0976562 L 11.644531 0.0976562 L 11.644531 4.429688 L 9.527344 4.429688 C 7.890625 4.429688 7.796875 5.007812 7.796875 6.164062 L 7.796875 8.28125 L 11.742188 8.28125 L 11.261719 12.613281 L 7.796875 12.613281 Z M 25.40625 25.132812 L 21.078125 25.132812 L 20.980469 24.074219 C 19.054688 25.132812 17.226562 25.324219 16.070312 25.324219 C 12.894531 25.324219 11.261719 23.207031 11.261719 20.320312 C 11.261719 16.851562 13.183594 15.601562 16.746094 15.601562 L 20.308594 15.601562 L 20.308594 14.828125 C 20.308594 13.097656 20.113281 12.519531 17.417969 12.519531 L 12.992188 12.519531 L 13.378906 8.183594 L 18.191406 8.183594 C 24.15625 8.183594 25.40625 10.015625 25.40625 14.828125 C 25.40625 14.828125 25.40625 25.132812 25.40625 25.132812 Z M 40.035156 12.902344 C 37.339844 12.421875 36.570312 12.324219 35.320312 12.324219 C 33.011719 12.324219 32.335938 12.808594 32.335938 14.828125 L 32.335938 18.585938 C 32.335938 20.511719 33.011719 21.089844 35.320312 21.089844 C 36.570312 21.089844 37.339844 20.992188 40.035156 20.511719 L 40.035156 24.75 C 37.726562 25.230469 36.1875 25.421875 34.839844 25.421875 C 29.257812 25.421875 27.042969 22.535156 27.042969 18.296875 L 27.042969 15.3125 C 27.042969 11.074219 29.257812 8.183594 34.839844 8.183594 C 36.089844 8.183594 37.628906 8.28125 40.035156 8.859375 Z M 56.203125 18.199219 L 46.773438 18.199219 L 46.773438 18.585938 C 46.773438 20.511719 47.445312 21.089844 49.757812 21.089844 C 51.875 21.089844 53.125 20.992188 55.820312 20.511719 L 55.820312 24.75 C 53.222656 25.230469 51.875 25.421875 49.371094 25.421875 C 43.789062 25.421875 41.574219 22.535156 41.574219 18.296875 L 41.574219 14.828125 C 41.574219 11.171875 43.210938 8.089844 48.890625 8.089844 C 54.570312 8.089844 56.203125 11.074219 56.203125 14.828125 C 56.203125 14.828125 56.203125 18.199219 56.203125 18.199219 Z M 73.046875 18.296875 C 73.046875 22.339844 71.890625 25.324219 64.867188 25.324219 C 62.363281 25.324219 60.824219 25.132812 58.03125 24.652344 L 58.03125 1.347656 L 63.230469 0.480469 L 63.230469 8.667969 C 64.386719 8.28125 65.828125 7.992188 67.078125 7.992188 C 72.277344 7.992188 73.144531 10.304688 73.144531 14.058594 Z M 89.601562 18.394531 C 89.601562 21.957031 88.15625 25.324219 82.09375 25.324219 C 76.03125 25.324219 74.585938 21.957031 74.585938 18.394531 L 74.585938 15.023438 C 74.585938 11.460938 76.03125 8.089844 82.09375 8.089844 C 88.15625 8.089844 89.601562 11.460938 89.601562 15.023438 Z M 106.152344 18.394531 C 106.152344 21.957031 104.710938 25.324219 98.648438 25.324219 C 92.582031 25.324219 91.140625 21.957031 91.140625 18.394531 L 91.140625 15.023438 C 91.140625 11.460938 92.582031 8.089844 98.648438 8.089844 C 104.710938 8.089844 106.152344 11.460938 106.152344 15.023438 Z M 123.089844 25.132812 L 117.511719 25.132812 L 112.792969 17.238281 L 112.792969 25.132812 L 107.597656 25.132812 L 107.597656 1.347656 L 112.792969 0.480469 L 112.792969 15.792969 L 117.511719 8.28125 L 123.089844 8.28125 L 117.894531 16.464844 Z M 98.550781 12.324219 C 96.816406 12.324219 96.144531 13.289062 96.144531 14.445312 L 96.144531 18.777344 C 96.144531 19.933594 96.722656 20.894531 98.550781 20.894531 C 100.28125 20.894531 100.957031 19.933594 100.957031 18.777344 L 100.957031 14.445312 C 100.957031 13.289062 100.378906 12.324219 98.550781 12.324219 Z M 126.074219 22.148438 C 126.941406 22.148438 127.613281 22.820312 127.613281 23.785156 C 127.613281 24.652344 126.941406 25.421875 126.074219 25.421875 C 125.210938 25.421875 124.535156 24.75 124.535156 23.785156 C 124.4375 22.820312 125.210938 22.148438 126.074219 22.148438 Z M 126.074219 22.4375 C 125.402344 22.4375 124.824219 23.015625 124.824219 23.785156 C 124.824219 24.554688 125.402344 25.132812 126.074219 25.132812 C 126.75 25.132812 127.328125 24.554688 127.328125 23.785156 C 127.328125 23.015625 126.75 22.4375 126.074219 22.4375 Z M 125.785156 24.652344 L 125.496094 24.652344 L 125.496094 22.820312 C 125.691406 22.820312 125.785156 22.820312 125.980469 22.820312 C 126.269531 22.820312 126.460938 22.917969 126.554688 22.917969 C 126.652344 23.015625 126.75 23.109375 126.75 23.304688 C 126.75 23.496094 126.554688 23.6875 126.363281 23.785156 C 126.554688 23.785156 126.652344 23.976562 126.652344 24.171875 C 126.652344 24.460938 126.75 24.554688 126.75 24.652344 L 126.460938 24.652344 C 126.460938 24.554688 126.363281 24.460938 126.363281 24.171875 C 126.363281 23.976562 126.171875 23.882812 125.980469 23.882812 L 125.785156 23.882812 Z M 125.785156 23.6875 L 125.980469 23.6875 C 126.171875 23.6875 126.363281 23.59375 126.363281 23.398438 C 126.363281 23.207031 126.269531 23.109375 125.980469 23.109375 C 125.882812 23.109375 125.785156 23.109375 125.785156 23.109375 Z M 125.785156 23.6875 "/>
</g>
</svg>
