<?xml version="1.0" encoding="UTF-8"?>
<svg xmlns="http://www.w3.org/2000/svg" xmlns:xlink="http://www.w3.org/1999/xlink" width="20px" height="20px" viewBox="0 0 20 20" version="1.1">
<g id="surface1">
<path style=" stroke:none;fill-rule:evenodd;fill:rgb(100%,0%,81.176471%);fill-opacity:1;" d="M 6.5 2.5 L 13.167969 2.5 C 15.332031 2.5 17.167969 4.25 17.167969 6.5 L 17.167969 13.167969 C 17.167969 15.332031 15.417969 17.167969 13.167969 17.167969 L 6.5 17.167969 C 4.332031 17.167969 2.5 15.417969 2.5 13.167969 L 2.5 6.5 C 2.5 4.25 4.25 2.5 6.5 2.5 Z M 13.167969 3.75 L 6.5 3.75 C 5 3.75 3.75 5 3.75 6.5 L 3.75 13.167969 C 3.75 14.582031 5 15.832031 6.5 15.832031 L 13.167969 15.832031 C 14.667969 15.832031 15.832031 14.582031 15.832031 13.167969 L 15.832031 6.5 C 15.832031 5 14.582031 3.75 13.167969 3.75 Z M 6.667969 9.832031 C 6.667969 8.082031 8.082031 6.667969 9.832031 6.667969 C 11.582031 6.667969 13 8.082031 13 9.832031 C 13 11.582031 11.582031 13 9.832031 13 C 8.082031 12.917969 6.667969 11.5 6.667969 9.832031 Z M 11.667969 9.832031 C 11.667969 8.832031 10.832031 8 9.832031 8 C 8.832031 8 8 8.832031 8 9.832031 C 8 10.832031 8.832031 11.667969 9.832031 11.667969 C 10.832031 11.667969 11.667969 10.832031 11.667969 9.832031 Z M 14.167969 5.917969 C 14.167969 5.582031 13.832031 5.417969 13.582031 5.417969 C 13.25 5.417969 12.917969 5.667969 12.917969 6.082031 L 12.917969 6.167969 C 12.917969 6.5 13.25 6.667969 13.5 6.667969 C 13.917969 6.667969 14.167969 6.417969 14.167969 6 Z M 14.167969 5.917969 "/>
</g>
</svg>
