<?xml version="1.0" encoding="UTF-8"?>
<svg xmlns="http://www.w3.org/2000/svg" xmlns:xlink="http://www.w3.org/1999/xlink" width="132px" height="26px" viewBox="0 0 125 26" version="1.1">
<g id="surface1">
<path style=" stroke:none;fill-rule:evenodd;fill:rgb(22.352941%,59.607843%,100%);fill-opacity:1;" d="M 13.078125 12.324219 L 0 12.324219 L 0 0 L 13.078125 0 Z M 27.019531 12.324219 L 13.941406 12.324219 L 13.941406 0 L 27.019531 0 Z M 0 25.613281 L 13.078125 25.613281 L 13.078125 13.191406 L 0 13.191406 Z M 27.019531 25.613281 L 13.941406 25.613281 L 13.941406 13.191406 L 27.019531 13.191406 Z M 124.421875 9.339844 L 124.421875 11.554688 L 121.730469 11.554688 L 121.730469 17.042969 C 121.730469 17.71875 121.828125 18.199219 122.117188 18.488281 C 122.308594 18.777344 122.789062 18.875 123.269531 18.875 C 123.367188 18.875 123.558594 18.875 123.847656 18.777344 C 124.039062 18.679688 124.230469 18.679688 124.421875 18.488281 L 124.519531 18.394531 L 124.519531 20.605469 C 124.328125 20.703125 124.039062 20.800781 123.652344 20.894531 C 123.269531 20.992188 122.882812 20.992188 122.5 20.992188 C 120.289062 20.992188 119.132812 19.742188 119.132812 17.332031 L 119.132812 11.554688 L 115.097656 11.554688 L 115.097656 20.894531 L 112.402344 20.894531 L 112.402344 11.554688 L 110.480469 11.554688 L 110.480469 9.339844 L 112.402344 9.339844 L 112.402344 7.703125 C 112.402344 6.933594 112.597656 6.164062 112.882812 5.585938 C 113.269531 4.910156 113.75 4.429688 114.328125 4.140625 C 115 3.753906 115.671875 3.660156 116.441406 3.660156 C 117.117188 3.660156 117.597656 3.753906 117.980469 3.851562 L 117.980469 6.164062 L 117.882812 6.164062 C 117.5 5.96875 117.117188 5.875 116.730469 5.875 C 116.152344 5.875 115.769531 6.066406 115.480469 6.355469 C 115.191406 6.742188 115 7.222656 115 7.894531 L 115 9.339844 L 119.039062 9.339844 L 119.039062 6.644531 L 119.132812 6.644531 L 121.632812 5.875 L 121.730469 5.875 L 121.730469 9.339844 Z M 102.117188 17.910156 C 102.691406 18.585938 103.460938 18.875 104.421875 18.875 C 105.382812 18.875 106.152344 18.585938 106.632812 17.910156 C 107.117188 17.238281 107.402344 16.273438 107.402344 15.023438 C 107.402344 13.769531 107.117188 12.808594 106.632812 12.230469 C 106.058594 11.554688 105.382812 11.265625 104.421875 11.265625 C 103.460938 11.265625 102.691406 11.652344 102.117188 12.230469 C 101.539062 12.902344 101.25 13.867188 101.25 15.117188 C 101.25 16.371094 101.539062 17.238281 102.117188 17.910156 Z M 104.519531 9.050781 C 102.597656 9.050781 101.152344 9.628906 100.097656 10.6875 C 99.039062 11.75 98.460938 13.289062 98.460938 15.214844 C 98.460938 17.042969 98.941406 18.488281 100 19.546875 C 101.058594 20.605469 102.402344 21.183594 104.230469 21.183594 C 106.058594 21.183594 107.5 20.605469 108.558594 19.453125 C 109.617188 18.296875 110.191406 16.851562 110.191406 14.925781 C 110.191406 13.097656 109.710938 11.652344 108.652344 10.59375 C 107.691406 9.535156 106.25 9.050781 104.519531 9.050781 Z M 90.960938 10.015625 C 91.730469 9.339844 92.789062 9.050781 94.132812 9.050781 C 94.519531 9.050781 95 9.050781 95.480469 9.148438 C 95.960938 9.246094 96.347656 9.339844 96.730469 9.535156 L 96.730469 12.035156 L 96.632812 11.941406 C 96.347656 11.75 95.867188 11.554688 95.480469 11.363281 C 95 11.265625 94.519531 11.171875 94.132812 11.171875 C 93.652344 11.171875 93.269531 11.265625 92.980469 11.460938 C 92.691406 11.652344 92.597656 11.941406 92.597656 12.324219 C 92.597656 12.710938 92.691406 13 92.882812 13.191406 C 93.078125 13.386719 93.652344 13.675781 94.519531 14.058594 C 95.578125 14.539062 96.347656 15.023438 96.730469 15.503906 C 97.210938 16.082031 97.402344 16.753906 97.402344 17.527344 C 97.402344 18.585938 97.019531 19.453125 96.152344 20.125 C 95.382812 20.800781 94.230469 21.089844 92.882812 21.089844 C 92.402344 21.089844 91.921875 20.992188 91.347656 20.894531 C 90.769531 20.800781 90.289062 20.605469 89.902344 20.414062 L 89.902344 17.71875 L 90 17.816406 C 90.480469 18.199219 90.960938 18.394531 91.539062 18.585938 C 92.117188 18.777344 92.597656 18.875 92.980469 18.875 C 94.132812 18.875 94.710938 18.488281 94.710938 17.71875 C 94.710938 17.429688 94.617188 17.238281 94.519531 17.042969 C 94.421875 16.851562 94.230469 16.753906 93.941406 16.5625 C 93.652344 16.371094 93.171875 16.179688 92.597656 15.890625 C 91.828125 15.601562 91.347656 15.214844 90.960938 14.925781 C 90.578125 14.636719 90.289062 14.25 90.191406 13.867188 C 90 13.480469 89.902344 13 89.902344 12.421875 C 89.710938 11.554688 90.191406 10.6875 90.960938 10.015625 Z M 82.691406 18.875 C 81.730469 18.875 80.960938 18.585938 80.382812 17.910156 C 79.808594 17.238281 79.519531 16.273438 79.519531 15.117188 C 79.519531 13.867188 79.808594 12.902344 80.382812 12.230469 C 80.960938 11.554688 81.730469 11.265625 82.691406 11.265625 C 83.652344 11.265625 84.421875 11.554688 84.902344 12.230469 C 85.480469 12.902344 85.671875 13.867188 85.671875 15.023438 C 85.671875 16.273438 85.382812 17.238281 84.902344 17.910156 C 84.421875 18.585938 83.652344 18.875 82.691406 18.875 Z M 78.367188 10.6875 C 79.421875 9.628906 80.960938 9.050781 82.789062 9.050781 C 84.519531 9.050781 85.960938 9.628906 86.921875 10.6875 C 87.882812 11.75 88.460938 13.191406 88.460938 15.023438 C 88.460938 16.851562 87.882812 18.394531 86.828125 19.546875 C 85.769531 20.703125 84.328125 21.28125 82.5 21.28125 C 80.769531 21.28125 79.328125 20.703125 78.269531 19.644531 C 77.210938 18.585938 76.730469 17.140625 76.730469 15.3125 C 76.828125 13.289062 77.308594 11.75 78.367188 10.6875 Z M 72.691406 11.265625 L 72.691406 9.339844 L 70 9.339844 L 70 20.894531 L 72.691406 20.894531 L 72.691406 14.925781 C 72.691406 13.964844 72.882812 13.097656 73.367188 12.421875 C 73.847656 11.84375 74.421875 11.460938 75.097656 11.460938 C 75.382812 11.460938 75.578125 11.460938 75.867188 11.554688 C 76.152344 11.652344 76.347656 11.75 76.441406 11.84375 L 76.539062 11.941406 L 76.539062 9.246094 C 76.25 9.148438 75.960938 9.050781 75.480469 9.050781 C 74.808594 9.050781 74.230469 9.246094 73.652344 9.726562 C 73.269531 10.109375 72.980469 10.6875 72.691406 11.265625 Z M 61.921875 9.820312 C 62.882812 9.339844 63.941406 9.050781 65.191406 9.050781 C 65.671875 9.050781 66.152344 9.148438 66.730469 9.246094 C 67.210938 9.339844 67.691406 9.535156 67.980469 9.628906 L 67.980469 12.230469 L 67.882812 12.132812 C 67.117188 11.554688 66.25 11.265625 65.382812 11.265625 C 64.328125 11.265625 63.558594 11.652344 62.882812 12.324219 C 62.210938 13 61.921875 13.964844 61.921875 15.117188 C 61.921875 16.273438 62.210938 17.238281 62.882812 17.910156 C 63.460938 18.585938 64.328125 18.875 65.382812 18.875 C 65.769531 18.875 66.152344 18.777344 66.632812 18.585938 C 67.117188 18.394531 67.597656 18.199219 67.980469 17.910156 L 68.078125 17.816406 L 68.078125 20.320312 C 67.210938 20.800781 66.152344 21.089844 64.808594 21.089844 C 63.75 21.089844 62.691406 20.800781 61.921875 20.320312 C 61.058594 19.835938 60.382812 19.164062 59.902344 18.296875 C 59.421875 17.429688 59.230469 16.371094 59.230469 15.3125 C 59.230469 14.058594 59.519531 12.902344 60 11.941406 C 60.289062 11.074219 61.058594 10.304688 61.921875 9.820312 Z M 57.210938 9.339844 L 54.519531 9.339844 L 54.519531 20.894531 L 57.210938 20.894531 Z M 54.808594 4.816406 C 55.097656 4.527344 55.480469 4.332031 55.960938 4.332031 C 56.441406 4.332031 56.828125 4.527344 57.117188 4.816406 C 57.402344 5.105469 57.597656 5.488281 57.597656 5.96875 C 57.597656 6.453125 57.402344 6.835938 57.117188 7.125 C 56.828125 7.414062 56.441406 7.605469 55.960938 7.605469 C 55.480469 7.605469 55.097656 7.414062 54.808594 7.125 C 54.519531 6.835938 54.328125 6.453125 54.328125 5.96875 C 54.328125 5.488281 54.519531 5.105469 54.808594 4.816406 Z M 49.230469 8.472656 L 49.230469 20.894531 L 51.921875 20.894531 L 51.921875 4.71875 L 48.171875 4.71875 L 43.367188 16.753906 L 38.75 4.71875 L 34.808594 4.71875 L 34.808594 20.894531 L 37.402344 20.894531 L 37.402344 8.472656 L 37.5 8.472656 L 42.402344 20.894531 L 44.328125 20.894531 Z M 49.230469 8.472656 "/>
</g>
</svg>
