<?xml version="1.0" encoding="UTF-8"?>
<svg xmlns="http://www.w3.org/2000/svg" xmlns:xlink="http://www.w3.org/1999/xlink" width="132px" height="26px" viewBox="0 0 94 26" version="1.1">
<g id="surface1">
<path style=" stroke:none;fill-rule:evenodd;fill:rgb(100%,0%,0%);fill-opacity:1;" d="M 12.851562 24.171875 C 11.414062 24.460938 9.976562 24.460938 8.535156 24.652344 L 4.027344 11.171875 L 4.027344 25.230469 C 2.589844 25.421875 1.34375 25.613281 0 25.808594 L 0 0.0976562 L 3.742188 0.0976562 L 8.921875 14.734375 L 8.921875 0.0976562 L 12.851562 0.0976562 Z M 20.621094 9.4375 C 22.15625 9.4375 24.460938 9.339844 25.898438 9.339844 L 25.898438 13.480469 C 24.171875 13.480469 22.0625 13.480469 20.621094 13.578125 L 20.621094 19.546875 C 22.925781 19.355469 25.226562 19.164062 27.625 19.164062 L 27.625 23.015625 L 16.691406 23.882812 L 16.691406 0.0976562 L 27.625 0.0976562 L 27.625 4.140625 L 20.621094 4.140625 Z M 42.300781 4.042969 L 38.175781 4.042969 L 38.175781 22.535156 C 36.832031 22.535156 35.488281 22.535156 34.242188 22.628906 L 34.242188 4.042969 L 30.117188 4.042969 L 30.117188 0.0976562 L 42.300781 0.0976562 Z M 48.726562 9.246094 L 54.097656 9.246094 L 54.097656 13.289062 L 48.726562 13.289062 L 48.726562 22.4375 L 44.890625 22.4375 L 44.890625 0.0976562 L 55.921875 0.0976562 L 55.921875 4.140625 L 48.726562 4.140625 Z M 62.25 18.875 C 64.457031 18.96875 66.757812 19.066406 68.964844 19.257812 L 68.964844 23.207031 C 65.417969 23.015625 61.867188 22.726562 58.320312 22.726562 L 58.320312 0.0976562 L 62.25 0.0976562 Z M 72.324219 23.496094 C 73.570312 23.59375 74.914062 23.6875 76.160156 23.785156 L 76.160156 0.0976562 L 72.324219 0.0976562 Z M 93.519531 0.0976562 L 88.53125 12.324219 L 93.519531 25.808594 C 92.082031 25.613281 90.546875 25.324219 89.109375 25.035156 L 86.230469 17.621094 L 83.351562 24.460938 C 81.914062 24.171875 80.570312 24.171875 79.132812 23.976562 L 84.214844 12.132812 L 79.613281 0.0976562 L 83.832031 0.0976562 L 86.421875 6.835938 L 89.203125 0.0976562 Z M 93.519531 0.0976562 "/>
</g>
</svg>
