<?xml version="1.0" encoding="UTF-8"?>
<svg xmlns="http://www.w3.org/2000/svg" xmlns:xlink="http://www.w3.org/1999/xlink" width="20px" height="20px" viewBox="0 0 20 20" version="1.1">
<g id="surface1">
<path style=" stroke:none;fill-rule:evenodd;fill:rgb(0%,64.313725%,100%);fill-opacity:1;" d="M 17.25 7 L 17.25 6.582031 L 17.25 6.667969 L 17.5 6.082031 L 17.917969 5.332031 L 18.167969 4.832031 L 18.25 4.582031 C 18.417969 4.167969 18.582031 3.832031 18.667969 3.5 L 18.667969 3.417969 C 18.832031 3.082031 18.582031 2.582031 18.082031 2.582031 L 17.832031 2.582031 C 17.667969 2.667969 17.5 2.75 17.332031 2.832031 L 17 3 L 16.667969 3.082031 L 16.25 3.167969 L 15.832031 3.332031 L 15.75 3.25 C 14.667969 2.417969 13.25 2.25 11.832031 2.832031 L 11.667969 2.917969 C 10.25 3.5 9.332031 4.832031 9.25 6.332031 L 9.25 6.667969 L 9.082031 6.667969 C 6.832031 6.582031 4.917969 5.5 3.667969 3.667969 C 3.332031 3.332031 2.832031 3.332031 2.582031 3.75 L 2.5 3.917969 L 2.5 4 C 1.917969 5.167969 1.5 6.667969 1.667969 8.167969 L 1.667969 8.417969 C 1.917969 10.332031 2.917969 11.917969 4.917969 13.167969 L 5.167969 13.332031 L 5 13.332031 C 3.75 14 2.667969 14.25 1.417969 14.25 C 0.75 14.25 0.5 15.082031 1.082031 15.417969 C 4.082031 17 7.25 17.5 10 16.75 C 13.332031 15.75 15.832031 13.332031 16.832031 9.832031 C 17.082031 8.917969 17.167969 7.917969 17.25 7 Z M 15.167969 4.5 C 15.332031 4.667969 15.582031 4.75 15.832031 4.667969 L 16.832031 4.417969 L 17.082031 4.332031 L 16.917969 4.667969 L 16.25 6 L 16.167969 6.167969 C 16.082031 6.332031 16.082031 6.417969 16.082031 6.582031 L 16.082031 6.667969 C 16.082031 7.667969 15.917969 8.667969 15.667969 9.582031 C 14.832031 12.582031 12.667969 14.75 9.75 15.582031 L 9.5 15.667969 C 7.917969 16.082031 6.082031 16 4.25 15.417969 L 3.917969 15.332031 L 4.167969 15.25 C 5.082031 14.917969 6 14.5 7 13.832031 C 7.417969 13.582031 7.332031 12.917969 6.917969 12.75 C 4.417969 11.667969 3.25 10.082031 3.082031 8.167969 L 3.082031 7.917969 C 3.082031 7.082031 3.167969 6.25 3.417969 5.582031 L 3.5 5.417969 C 5.167969 7.25 7.5 8.25 10 8.167969 C 10.332031 8.167969 10.582031 7.917969 10.582031 7.582031 L 10.582031 6.75 C 10.582031 5.582031 11.25 4.667969 12.332031 4.25 C 13.417969 3.582031 14.5 3.667969 15.167969 4.5 Z M 15.167969 4.5 "/>
</g>
</svg>
