<?xml version="1.0" encoding="UTF-8"?>
<svg xmlns="http://www.w3.org/2000/svg" xmlns:xlink="http://www.w3.org/1999/xlink" width="132px" height="26px" viewBox="0 0 123 26" version="1.1">
<g id="surface1">
<path style=" stroke:none;fill-rule:evenodd;fill:rgb(0%,0%,0%);fill-opacity:1;" d="M 19.925781 0 L 24.601562 0 L 24.601562 15.105469 C 24.601562 23.027344 19.558594 25.753906 12.300781 25.753906 C 5.042969 25.753906 0 23.027344 0 15.105469 L 0 0.617188 C 0 0.125 0.246094 0 0.613281 0 L 5.289062 0 L 5.289062 14.855469 C 5.289062 19.5625 7.378906 21.542969 12.300781 21.542969 C 17.21875 21.542969 19.3125 19.5625 19.3125 14.855469 L 19.3125 0.617188 C 19.3125 0.125 19.433594 0 19.925781 0 Z M 73.308594 4.085938 L 73.308594 10.398438 L 85.238281 10.398438 C 85.484375 10.398438 85.484375 10.523438 85.484375 10.769531 L 84.132812 13.992188 C 84.007812 14.238281 83.761719 14.363281 83.394531 14.363281 L 76.382812 14.363281 C 74.046875 14.363281 73.308594 15.105469 73.308594 16.589844 L 73.308594 21.046875 L 89.421875 21.046875 C 89.667969 21.046875 89.667969 21.171875 89.667969 21.417969 L 88.3125 24.761719 C 88.191406 25.007812 87.945312 25.132812 87.574219 25.132812 L 69.863281 25.132812 C 68.511719 25.132812 68.019531 24.636719 68.019531 23.648438 L 68.019531 1.734375 C 68.019531 0.496094 68.757812 0 70.480469 0 L 89.421875 0 C 89.667969 0 89.667969 0.125 89.667969 0.246094 L 88.3125 3.714844 C 88.191406 3.960938 87.945312 4.085938 87.574219 4.085938 Z M 58.300781 18.324219 C 58.300781 23.398438 54.734375 25.382812 49.816406 25.382812 L 36.53125 25.382812 C 35.179688 25.382812 34.6875 24.886719 34.6875 23.894531 L 34.6875 1.734375 C 34.6875 0.496094 35.300781 0 37.144531 0 L 47.847656 0 C 52.519531 0 57.070312 0.867188 57.070312 6.4375 C 57.070312 8.789062 56.210938 10.894531 54.121094 12.007812 C 56.949219 12.753906 58.300781 15.230469 58.300781 18.324219 Z M 39.851562 10.523438 L 48.214844 10.523438 C 50.921875 10.523438 51.78125 9.410156 51.78125 7.304688 C 51.78125 5.199219 51.046875 4.085938 48.214844 4.085938 L 39.851562 4.085938 Z M 53.011719 17.828125 C 53.011719 15.476562 52.152344 14.363281 49.199219 14.363281 L 43.050781 14.363281 C 40.714844 14.363281 39.851562 15.105469 39.851562 16.589844 L 39.851562 21.296875 L 49.199219 21.296875 C 52.152344 21.296875 53.011719 20.179688 53.011719 17.828125 Z M 122.261719 25.257812 L 117.464844 25.257812 C 117.097656 25.257812 116.972656 25.132812 116.726562 24.886719 L 111.683594 15.601562 L 107.011719 15.601562 C 104.671875 15.601562 103.8125 16.34375 103.8125 17.828125 L 103.8125 25.257812 L 99.261719 25.257812 C 98.890625 25.257812 98.644531 25.007812 98.644531 24.636719 L 98.644531 1.734375 C 98.644531 0.496094 99.382812 0 101.105469 0 L 111.929688 0 C 118.203125 0 122.015625 1.609375 122.015625 7.800781 C 122.015625 12.503906 119.800781 14.363281 116.972656 15.105469 L 122.632812 24.886719 C 122.632812 25.007812 122.632812 25.257812 122.261719 25.257812 Z M 116.605469 7.921875 C 116.605469 5.324219 115.867188 4.085938 112.667969 4.085938 L 103.933594 4.085938 L 103.933594 11.761719 L 112.667969 11.761719 C 115.988281 11.761719 116.605469 10.523438 116.605469 7.921875 Z M 116.605469 7.921875 "/>
</g>
</svg>
