<?xml version="1.0" encoding="UTF-8"?>
<svg xmlns="http://www.w3.org/2000/svg" xmlns:xlink="http://www.w3.org/1999/xlink" width="132px" height="26px" viewBox="0 0 84 26" version="1.1">
<g id="surface1">
<path style=" stroke:none;fill-rule:evenodd;fill:rgb(100%,66.666667%,0%);fill-opacity:1;" d="M 36.296875 25.585938 L 29.453125 25.585938 L 33.703125 0.519531 L 40.546875 0.519531 Z M 23.75 0.414062 L 17.214844 17.679688 L 16.488281 13.9375 L 14.207031 2.703125 C 14.207031 2.703125 13.894531 0.414062 10.992188 0.414062 L 0.207031 0.414062 L 0 0.832031 C 0 0.832031 3.320312 1.457031 7.15625 3.742188 L 13.066406 25.585938 L 20.222656 25.585938 L 31.109375 0.414062 Z M 77.464844 25.585938 L 83.6875 25.585938 L 78.296875 0.414062 L 72.800781 0.414062 C 70.3125 0.414062 69.6875 2.289062 69.6875 2.289062 L 59.527344 25.480469 L 66.679688 25.480469 L 68.132812 21.734375 L 76.742188 21.734375 Z M 70 16.640625 L 73.628906 7.28125 L 75.601562 16.640625 Z M 60.042969 6.449219 L 60.976562 1.039062 C 60.976562 1.039062 57.96875 -0.105469 54.859375 -0.105469 C 51.4375 -0.105469 43.453125 1.351562 43.453125 8.214844 C 43.453125 14.664062 52.890625 14.769531 52.890625 18.199219 C 52.890625 21.632812 44.386719 21.007812 41.585938 18.824219 L 40.546875 24.441406 C 40.546875 24.441406 43.554688 25.894531 48.222656 25.894531 C 52.890625 25.894531 59.941406 23.609375 59.941406 17.265625 C 59.941406 10.710938 50.398438 10.089844 50.398438 7.28125 C 50.398438 4.574219 57.035156 4.992188 60.042969 6.449219 Z M 60.042969 6.449219 "/>
</g>
</svg>
