<?xml version="1.0" encoding="UTF-8"?>
<svg xmlns="http://www.w3.org/2000/svg" xmlns:xlink="http://www.w3.org/1999/xlink" width="132px" height="26px" viewBox="0 0 188 26" version="1.1">
<g id="surface1">
<path style=" stroke:none;fill-rule:nonzero;fill:rgb(58.431373%,0%,100%);fill-opacity:1;" d="M 11.886719 8.234375 C 10.589844 8.234375 9.722656 8.667969 9.074219 9.535156 C 8.210938 10.398438 7.996094 11.484375 7.996094 13 C 7.996094 14.734375 8.210938 15.816406 8.859375 16.683594 C 9.507812 17.550781 10.371094 17.984375 11.667969 17.984375 C 12.535156 17.984375 13.613281 17.765625 14.695312 17.332031 L 14.695312 19.066406 C 14.476562 19.285156 14.046875 19.5 13.398438 19.5 C 12.964844 19.714844 12.316406 19.714844 11.667969 19.714844 C 9.722656 19.714844 8.210938 19.066406 7.347656 17.984375 C 6.265625 16.898438 5.835938 15.167969 5.835938 13 C 5.835938 10.832031 6.484375 9.316406 7.5625 8.015625 C 8.644531 6.714844 10.15625 6.285156 12.101562 6.285156 C 13.398438 6.285156 14.476562 6.5 15.773438 7.148438 L 14.695312 8.882812 C 13.613281 8.449219 12.535156 8.234375 11.886719 8.234375 Z M 0 13 C 0 11.050781 0.433594 9.101562 1.511719 7.367188 C 2.59375 5.632812 3.890625 4.332031 5.617188 3.464844 C 7.347656 2.382812 9.292969 1.949219 11.238281 1.949219 C 13.179688 1.949219 15.125 2.382812 16.855469 3.464844 C 18.367188 4.332031 19.878906 5.632812 20.746094 7.367188 C 21.824219 9.101562 22.257812 11.050781 22.257812 13 C 22.257812 14.949219 21.824219 16.683594 20.746094 18.417969 C 19.878906 20.148438 18.582031 21.667969 16.855469 22.535156 C 15.125 23.617188 13.179688 24.050781 11.238281 24.050781 C 9.292969 24.050781 7.347656 23.617188 5.617188 22.535156 C 3.890625 21.667969 2.59375 20.148438 1.511719 18.417969 C 0.648438 16.898438 0 14.949219 0 13 Z M 1.730469 13 C 1.730469 14.734375 2.160156 16.25 3.023438 17.765625 C 3.890625 19.285156 4.96875 20.367188 6.484375 21.234375 C 7.996094 22.101562 9.507812 22.535156 11.238281 22.535156 C 12.964844 22.535156 14.476562 22.101562 15.992188 21.234375 C 17.503906 20.367188 18.582031 19.285156 19.449219 17.765625 C 20.3125 16.25 20.746094 14.734375 20.746094 13 C 20.746094 11.265625 20.3125 9.75 19.449219 8.234375 C 18.582031 6.714844 17.503906 5.632812 15.992188 4.765625 C 14.476562 3.898438 12.964844 3.464844 11.238281 3.464844 C 9.507812 3.464844 7.996094 3.898438 6.484375 4.765625 C 4.96875 5.632812 3.890625 6.714844 3.023438 8.234375 C 2.160156 9.75 1.730469 11.265625 1.730469 13 Z M 47.324219 23.832031 L 33.0625 23.832031 L 33.0625 21.667969 L 38.898438 16.035156 C 40.625 14.300781 41.707031 13 42.355469 12.351562 C 43.003906 11.699219 43.21875 10.832031 43.652344 10.183594 C 43.867188 9.535156 44.082031 8.667969 44.082031 7.800781 C 44.082031 6.714844 43.652344 5.632812 43.003906 4.984375 C 42.355469 4.332031 41.273438 3.898438 40.191406 3.898438 C 39.328125 3.898438 38.464844 4.117188 37.601562 4.332031 C 36.734375 4.550781 35.871094 5.199219 35.007812 5.851562 L 33.496094 4.332031 C 35.4375 2.601562 37.601562 1.949219 39.976562 1.949219 C 41.921875 1.949219 43.652344 2.382812 44.730469 3.464844 C 45.8125 4.550781 46.460938 5.851562 46.460938 7.582031 C 46.460938 8.882812 46.027344 10.398438 45.378906 11.699219 C 44.515625 13 43.21875 14.734375 41.058594 16.898438 L 36.304688 21.449219 L 36.304688 21.667969 L 47.324219 21.667969 Z M 64.828125 13 C 64.828125 16.683594 64.179688 19.5 63.097656 21.449219 C 62.019531 23.398438 60.074219 24.265625 57.695312 24.265625 C 55.320312 24.265625 53.589844 23.398438 52.292969 21.449219 C 50.996094 19.5 50.566406 16.683594 50.566406 13 C 50.566406 9.316406 51.214844 6.5 52.292969 4.550781 C 53.375 2.816406 55.320312 1.734375 57.695312 1.734375 C 60.074219 1.734375 61.800781 2.601562 63.097656 4.550781 C 64.179688 6.5 64.828125 9.316406 64.828125 13 Z M 52.941406 13 C 52.941406 16.25 53.375 18.417969 54.023438 19.933594 C 54.671875 21.449219 55.96875 22.101562 57.480469 22.101562 C 59.210938 22.101562 60.289062 21.449219 60.9375 19.933594 C 61.585938 18.417969 62.019531 16.25 62.019531 13 C 62.019531 9.964844 61.585938 7.582031 60.9375 6.066406 C 60.289062 4.550781 58.992188 3.898438 57.480469 3.898438 C 55.96875 3.898438 54.671875 4.550781 54.023438 6.066406 C 53.375 7.582031 52.941406 9.75 52.941406 13 Z M 76.929688 23.832031 L 74.550781 23.832031 L 74.550781 8.449219 C 74.550781 7.148438 74.550781 5.851562 74.769531 4.765625 C 74.550781 4.984375 74.335938 5.199219 74.121094 5.417969 C 73.902344 5.632812 72.605469 6.5 70.660156 8.234375 L 69.148438 6.5 L 74.769531 2.167969 L 76.929688 2.167969 Z M 99.1875 11.484375 C 99.1875 19.933594 95.945312 24.265625 89.460938 24.265625 C 88.382812 24.265625 87.515625 24.265625 86.652344 24.050781 L 86.652344 21.882812 C 87.515625 22.101562 88.382812 22.316406 89.246094 22.316406 C 91.621094 22.316406 93.351562 21.667969 94.648438 20.148438 C 95.945312 18.632812 96.59375 16.464844 96.59375 13.433594 L 96.378906 13.433594 C 95.730469 14.300781 95.082031 14.949219 94.214844 15.382812 C 93.351562 15.816406 92.269531 16.035156 91.191406 16.035156 C 89.246094 16.035156 87.734375 15.382812 86.652344 14.300781 C 85.574219 13.214844 84.925781 11.484375 84.925781 9.535156 C 84.925781 7.367188 85.574219 5.417969 86.867188 4.117188 C 88.164062 2.816406 89.679688 2.167969 91.839844 2.167969 C 93.351562 2.167969 94.648438 2.601562 95.730469 3.25 C 96.808594 3.898438 97.671875 5.199219 98.320312 6.5 C 98.96875 7.800781 99.1875 9.535156 99.1875 11.484375 Z M 92.054688 3.898438 C 90.542969 3.898438 89.460938 4.332031 88.8125 5.199219 C 88.164062 6.066406 87.734375 7.367188 87.734375 8.882812 C 87.734375 10.398438 88.164062 11.484375 88.8125 12.351562 C 89.460938 13.214844 90.542969 13.648438 92.054688 13.648438 C 92.917969 13.648438 93.785156 13.433594 94.433594 13 C 95.296875 12.566406 95.730469 12.132812 96.160156 11.484375 C 96.59375 10.832031 96.808594 10.183594 96.808594 9.535156 C 96.808594 8.449219 96.59375 7.582031 96.160156 6.714844 C 95.730469 5.851562 95.296875 5.199219 94.433594 4.550781 C 93.785156 4.117188 92.917969 3.898438 92.054688 3.898438 Z M 114.3125 23.832031 L 111.71875 23.832031 L 111.71875 2.167969 L 123.820312 2.167969 L 123.820312 4.332031 L 114.3125 4.332031 L 114.3125 12.351562 L 123.171875 12.351562 L 123.171875 14.515625 L 114.3125 14.515625 Z M 137.003906 23.832031 L 136.570312 21.449219 L 136.355469 21.449219 C 135.488281 22.535156 134.839844 23.183594 133.976562 23.617188 C 133.113281 24.050781 132.25 24.050781 130.953125 24.050781 C 129.4375 24.050781 128.140625 23.617188 127.0625 22.75 C 126.199219 21.882812 125.765625 20.800781 125.765625 19.285156 C 125.765625 16.035156 128.359375 14.300781 133.542969 14.082031 L 136.355469 14.082031 L 136.355469 13 C 136.355469 11.699219 136.136719 10.832031 135.488281 10.183594 C 134.839844 9.535156 133.976562 9.316406 132.898438 9.316406 C 131.601562 9.316406 130.085938 9.75 128.359375 10.617188 L 127.496094 8.667969 C 128.359375 8.234375 129.222656 7.800781 130.085938 7.582031 C 130.953125 7.367188 132.03125 7.148438 132.898438 7.148438 C 134.839844 7.148438 136.355469 7.582031 137.21875 8.449219 C 138.082031 9.316406 138.515625 10.617188 138.515625 12.566406 L 138.515625 23.832031 Z M 131.382812 22.101562 C 132.898438 22.101562 134.191406 21.667969 135.058594 20.800781 C 135.921875 19.933594 136.355469 18.851562 136.355469 17.332031 L 136.355469 15.816406 L 133.976562 15.816406 C 132.03125 15.816406 130.519531 16.25 129.65625 16.683594 C 128.789062 17.117188 128.359375 17.984375 128.359375 19.285156 C 128.359375 20.148438 128.574219 20.800781 129.222656 21.234375 C 129.65625 21.882812 130.519531 22.101562 131.382812 22.101562 Z M 151.265625 7.367188 C 153.425781 7.367188 154.9375 8.015625 156.234375 9.535156 C 157.316406 11.050781 157.964844 13 157.964844 15.816406 C 157.964844 18.632812 157.316406 20.582031 156.234375 22.101562 C 155.152344 23.617188 153.425781 24.265625 151.265625 24.265625 C 150.183594 24.265625 149.320312 24.050781 148.457031 23.617188 C 147.589844 23.183594 146.941406 22.535156 146.292969 21.882812 L 146.078125 21.882812 L 145.644531 24.050781 L 143.917969 24.050781 L 143.917969 0.867188 L 146.292969 0.867188 L 146.292969 6.5 C 146.292969 7.800781 146.292969 8.882812 146.078125 9.964844 L 146.292969 9.964844 C 147.375 8.234375 149.101562 7.367188 151.265625 7.367188 Z M 151.046875 9.316406 C 149.320312 9.316406 148.238281 9.75 147.375 10.832031 C 146.726562 11.699219 146.292969 13.433594 146.292969 15.601562 C 146.292969 17.765625 146.726562 19.5 147.375 20.582031 C 148.238281 21.667969 149.320312 22.101562 151.046875 22.101562 C 152.5625 22.101562 153.640625 21.449219 154.503906 20.367188 C 155.152344 19.285156 155.585938 17.765625 155.585938 15.601562 C 155.585938 13.433594 155.152344 11.917969 154.503906 10.832031 C 153.640625 9.964844 152.5625 9.316406 151.046875 9.316406 Z M 169.847656 7.367188 C 170.496094 7.367188 171.144531 7.367188 171.792969 7.582031 L 171.359375 9.964844 C 170.710938 9.75 170.0625 9.75 169.632812 9.75 C 168.335938 9.75 167.253906 10.183594 166.175781 11.265625 C 165.308594 12.351562 164.878906 13.648438 164.878906 15.167969 L 164.878906 23.832031 L 162.5 23.832031 L 162.5 7.582031 L 164.445312 7.582031 L 164.660156 10.617188 L 164.878906 10.617188 C 165.527344 9.535156 166.175781 8.667969 167.039062 8.234375 C 167.902344 7.582031 168.769531 7.367188 169.847656 7.367188 Z M 178.707031 15.601562 L 173.089844 7.582031 L 175.898438 7.582031 L 180.21875 13.867188 L 184.542969 7.582031 L 187.351562 7.582031 L 181.515625 15.601562 L 187.351562 23.832031 L 184.542969 23.832031 L 180.003906 17.332031 L 175.464844 23.832031 L 172.65625 23.832031 Z M 178.707031 15.601562 "/>
</g>
</svg>
