<?xml version="1.0" encoding="UTF-8"?>
<svg xmlns="http://www.w3.org/2000/svg" xmlns:xlink="http://www.w3.org/1999/xlink" width="px" height="px" viewBox="0 0 18 18" version="1.1">
<g id="surface1">
<path style=" stroke:none;fill-rule:evenodd;fill:rgb(0%,100%,42.745098%);fill-opacity:1;" d="M 5.398438 3.75 C 6.976562 3.75 8.25 5.023438 8.25 6.601562 C 8.25 7.5 7.800781 8.324219 7.199219 8.851562 L 7.125 8.851562 L 7.199219 8.851562 C 7.800781 9.300781 8.25 10.050781 8.25 10.949219 L 8.25 11.101562 C 8.25 12.601562 7.050781 13.800781 5.550781 13.875 L 2.101562 13.875 C 1.800781 13.875 1.574219 13.648438 1.574219 13.425781 L 1.574219 4.351562 C 1.5 4.050781 1.726562 3.824219 1.949219 3.75 Z M 2.625 9.375 L 2.625 12.75 L 5.476562 12.75 C 6.375 12.75 7.125 12.074219 7.125 11.175781 L 7.125 11.023438 C 7.125 10.125 6.449219 9.375 5.550781 9.375 Z M 5.476562 8.25 L 2.625 8.25 L 2.625 4.875 L 5.625 4.875 C 6.523438 4.949219 7.199219 5.699219 7.199219 6.523438 C 7.199219 7.351562 6.449219 8.175781 5.550781 8.25 Z M 16.125 9.601562 C 16.125 7.875 14.699219 6.449219 12.976562 6.449219 C 11.25 6.449219 9.75 7.800781 9.75 9.601562 L 9.75 11.324219 C 9.976562 12.675781 11.023438 13.648438 12.375 13.875 C 13.800781 14.101562 15.148438 13.351562 15.75 12.074219 C 15.898438 11.773438 15.75 11.476562 15.449219 11.324219 C 15.148438 11.175781 14.851562 11.324219 14.699219 11.625 C 14.324219 12.449219 13.425781 12.898438 12.523438 12.824219 L 12.375 12.824219 C 11.550781 12.675781 10.949219 12 10.800781 11.25 L 10.800781 10.273438 L 15.523438 10.273438 C 15.898438 10.050781 16.125 9.824219 16.125 9.601562 Z M 10.949219 8.925781 C 11.25 8.101562 12 7.5 12.898438 7.5 L 13.050781 7.5 C 13.949219 7.574219 14.625 8.175781 14.925781 8.925781 L 14.925781 9 Z M 14.625 4.351562 C 14.625 4.050781 14.398438 3.75 14.023438 3.75 L 11.699219 3.75 C 11.398438 3.75 11.25 4.050781 11.25 4.273438 C 11.25 4.574219 11.476562 4.875 11.851562 4.875 L 14.175781 4.875 C 14.398438 4.800781 14.625 4.574219 14.625 4.351562 Z M 14.625 4.351562 "/>
</g>
</svg>
