<?xml version="1.0" encoding="UTF-8"?>
<svg xmlns="http://www.w3.org/2000/svg" xmlns:xlink="http://www.w3.org/1999/xlink" width="px" height="px" viewBox="0 0 18 18" version="1.1">
<g id="surface1">
<path style=" stroke:none;fill-rule:evenodd;fill:rgb(46.27451%,0%,100%);fill-opacity:1;" d="M 13.351562 1.5 C 13.648438 1.5 13.875 1.726562 13.875 1.949219 L 13.875 5.023438 C 13.875 5.324219 13.648438 5.550781 13.425781 5.550781 L 11.101562 5.550781 C 11.023438 5.550781 10.949219 5.625 10.949219 5.699219 L 10.949219 6.75 L 13.351562 6.75 C 13.726562 6.75 13.949219 7.050781 13.875 7.351562 L 13.875 7.425781 L 13.125 10.425781 C 13.050781 10.648438 12.898438 10.800781 12.675781 10.875 L 10.949219 10.875 L 10.949219 15.523438 C 10.949219 15.824219 10.726562 16.050781 10.5 16.050781 L 7.425781 16.050781 C 7.125 16.050781 6.898438 15.824219 6.898438 15.601562 L 6.898438 10.875 L 5.101562 10.875 C 4.800781 10.875 4.574219 10.648438 4.574219 10.425781 L 4.574219 7.351562 C 4.5 7.050781 4.726562 6.824219 4.949219 6.75 L 6.75 6.75 L 6.75 5.851562 C 6.75 3.523438 8.625 1.648438 10.875 1.574219 L 13.351562 1.574219 Z M 12.75 2.625 L 11.101562 2.625 C 9.375 2.625 8.023438 3.976562 7.949219 5.625 L 7.949219 7.273438 C 7.949219 7.574219 7.726562 7.800781 7.5 7.800781 L 5.625 7.800781 L 5.625 9.75 L 7.273438 9.75 C 7.574219 9.75 7.800781 9.976562 7.800781 10.199219 L 7.800781 15 L 9.75 15 L 9.75 10.351562 C 9.75 10.050781 9.976562 9.824219 10.199219 9.824219 L 12.074219 9.824219 L 12.523438 7.949219 L 10.273438 7.949219 C 9.976562 7.949219 9.75 7.726562 9.75 7.5 L 9.75 5.925781 C 9.75 5.25 10.273438 4.648438 10.949219 4.648438 L 12.75 4.648438 Z M 12.75 2.625 "/>
</g>
</svg>
