<?xml version="1.0" encoding="UTF-8"?>
<svg xmlns="http://www.w3.org/2000/svg" xmlns:xlink="http://www.w3.org/1999/xlink" width="px" height="px" viewBox="0 0 18 18" version="1.1">
<g id="surface1">
<path style=" stroke:none;fill-rule:evenodd;fill:rgb(100%,0%,81.176471%);fill-opacity:1;" d="M 5.851562 2.25 L 11.851562 2.25 C 13.800781 2.25 15.449219 3.824219 15.449219 5.851562 L 15.449219 11.851562 C 15.449219 13.800781 13.875 15.449219 11.851562 15.449219 L 5.851562 15.449219 C 3.898438 15.449219 2.25 13.875 2.25 11.851562 L 2.25 5.851562 C 2.25 3.824219 3.824219 2.25 5.851562 2.25 Z M 11.851562 3.375 L 5.851562 3.375 C 4.5 3.375 3.375 4.5 3.375 5.851562 L 3.375 11.851562 C 3.375 13.125 4.5 14.25 5.851562 14.25 L 11.851562 14.25 C 13.199219 14.25 14.25 13.125 14.25 11.851562 L 14.25 5.851562 C 14.25 4.5 13.125 3.375 11.851562 3.375 Z M 6 8.851562 C 6 7.273438 7.273438 6 8.851562 6 C 10.425781 6 11.699219 7.273438 11.699219 8.851562 C 11.699219 10.425781 10.425781 11.699219 8.851562 11.699219 C 7.273438 11.625 6 10.351562 6 8.851562 Z M 10.5 8.851562 C 10.5 7.949219 9.75 7.199219 8.851562 7.199219 C 7.949219 7.199219 7.199219 7.949219 7.199219 8.851562 C 7.199219 9.75 7.949219 10.5 8.851562 10.5 C 9.75 10.5 10.5 9.75 10.5 8.851562 Z M 12.75 5.324219 C 12.75 5.023438 12.449219 4.875 12.226562 4.875 C 11.925781 4.875 11.625 5.101562 11.625 5.476562 L 11.625 5.550781 C 11.625 5.851562 11.925781 6 12.148438 6 C 12.523438 6 12.75 5.773438 12.75 5.398438 Z M 12.75 5.324219 "/>
</g>
</svg>
