<?xml version="1.0" encoding="UTF-8"?>
<svg xmlns="http://www.w3.org/2000/svg" xmlns:xlink="http://www.w3.org/1999/xlink" width="px" height="px" viewBox="0 0 18 18" version="1.1">
<g id="surface1">
<path style=" stroke:none;fill-rule:evenodd;fill:rgb(0%,64.313725%,100%);fill-opacity:1;" d="M 15.523438 6.300781 L 15.523438 5.925781 L 15.523438 6 L 15.75 5.476562 L 16.125 4.800781 L 16.351562 4.351562 L 16.425781 4.125 C 16.574219 3.75 16.726562 3.449219 16.800781 3.148438 L 16.800781 3.074219 C 16.949219 2.773438 16.726562 2.324219 16.273438 2.324219 L 16.050781 2.324219 C 15.898438 2.398438 15.75 2.476562 15.601562 2.550781 L 15.300781 2.699219 L 15 2.773438 L 14.625 2.851562 L 14.25 3 L 14.175781 2.925781 C 13.199219 2.175781 11.925781 2.023438 10.648438 2.550781 L 10.5 2.625 C 9.226562 3.148438 8.398438 4.351562 8.324219 5.699219 L 8.324219 6 L 8.175781 6 C 6.148438 5.925781 4.425781 4.949219 3.300781 3.300781 C 3 3 2.550781 3 2.324219 3.375 L 2.25 3.523438 L 2.25 3.601562 C 1.726562 4.648438 1.351562 6 1.5 7.351562 L 1.5 7.574219 C 1.726562 9.300781 2.625 10.726562 4.425781 11.851562 L 4.648438 12 L 4.5 12 C 3.375 12.601562 2.398438 12.824219 1.273438 12.824219 C 0.675781 12.824219 0.449219 13.574219 0.976562 13.875 C 3.675781 15.300781 6.523438 15.75 9 15.074219 C 12 14.175781 14.25 12 15.148438 8.851562 C 15.375 8.023438 15.449219 7.125 15.523438 6.300781 Z M 13.648438 4.050781 C 13.800781 4.199219 14.023438 4.273438 14.25 4.199219 L 15.148438 3.976562 L 15.375 3.898438 L 15.226562 4.199219 L 14.625 5.398438 L 14.550781 5.550781 C 14.476562 5.699219 14.476562 5.773438 14.476562 5.925781 L 14.476562 6 C 14.476562 6.898438 14.324219 7.800781 14.101562 8.625 C 13.351562 11.324219 11.398438 13.273438 8.773438 14.023438 L 8.550781 14.101562 C 7.125 14.476562 5.476562 14.398438 3.824219 13.875 L 3.523438 13.800781 L 3.75 13.726562 C 4.574219 13.425781 5.398438 13.050781 6.300781 12.449219 C 6.675781 12.226562 6.601562 11.625 6.226562 11.476562 C 3.976562 10.5 2.925781 9.074219 2.773438 7.351562 L 2.773438 7.125 C 2.773438 6.375 2.851562 5.625 3.074219 5.023438 L 3.148438 4.875 C 4.648438 6.523438 6.75 7.425781 9 7.351562 C 9.300781 7.351562 9.523438 7.125 9.523438 6.824219 L 9.523438 6.074219 C 9.523438 5.023438 10.125 4.199219 11.101562 3.824219 C 12.074219 3.226562 13.050781 3.300781 13.648438 4.050781 Z M 13.648438 4.050781 "/>
</g>
</svg>
